<?xml version="1.0" encoding="UTF-8" standalone="no"?>
<svg
   id="Layer_1"
   data-name="Layer 1"
   viewBox="0 0 1080 1080"
   version="1.1"
   sodipodi:docname="logo.svg"
   inkscape:version="1.4.2 (2aeb623e1d, 2025-05-12)"
   xmlns:inkscape="http://www.inkscape.org/namespaces/inkscape"
   xmlns:sodipodi="http://sodipodi.sourceforge.net/DTD/sodipodi-0.dtd"
   xmlns="http://www.w3.org/2000/svg"
   xmlns:svg="http://www.w3.org/2000/svg">
  <sodipodi:namedview
     id="namedview5"
     pagecolor="#505050"
     bordercolor="#ffffff"
     borderopacity="1"
     inkscape:showpageshadow="0"
     inkscape:pageopacity="0"
     inkscape:pagecheckerboard="1"
     inkscape:deskcolor="#505050"
     inkscape:zoom="0.74351852"
     inkscape:cx="540"
     inkscape:cy="540"
     inkscape:window-width="1920"
     inkscape:window-height="1011"
     inkscape:window-x="0"
     inkscape:window-y="0"
     inkscape:window-maximized="1"
     inkscape:current-layer="Layer_1" />
  <defs
     id="defs1">
    <style
       id="style1">.cls-1{fill:#fff;}.cls-2{fill:#36f;}</style>
  </defs>
  <rect
     class="cls-1"
     width="1080"
     height="1080"
     rx="540"
     id="rect1" />
  <path
     class="cls-2"
     d="m 865.33803,882.84939 c 0.56867,-0.93056 1.08563,-1.8611 1.60261,-2.79164 a 74.340331,74.340331 0 0 0 8.4266,-43.37382 V 309.37419 A 148.37048,148.37048 0 0 0 727.25525,161.00372 v 0 482.43671 L 335.44346,185.97339 a 74.236937,74.236937 0 0 0 -104.89329,-7.80626 v 0 a 73.926755,73.926755 0 0 0 -16.28454,20.00675 c -0.56869,0.93055 -1.13735,1.8611 -1.65431,2.84336 a 10.339406,10.339406 0 0 1 -0.51698,1.08562 74.133543,74.133543 0 0 0 -7.90965,33.2412 v 536.14992 a 148.42218,148.42218 0 0 0 148.42218,148.42218 v 0 -485.33175 l 385.76326,450.48795 a 74.133543,74.133543 0 0 0 62.81189,34.8438 v 0 a 74.133543,74.133543 0 0 0 62.81188,-34.8438 c 0.46527,-0.72375 0.93055,-1.44753 1.34413,-2.22297 z"
     id="path5"
     style="stroke-width:5.16969" />
</svg>
